<mxfile host="app.diagrams.net" modified="2023-04-25T09:22:20.332Z" agent="Mozilla/5.0 (Macintosh; Intel Mac OS X 10_15_7) AppleWebKit/537.36 (KHTML, like Gecko) Chrome/112.0.0.0 Safari/537.36" version="21.2.1" etag="iKMf-QVCwIKgvgeHgAC7" type="github">
  <diagram name="第 1 页" id="Lbr6FxP4xDEd8uxFApeF">
    <mxGraphModel>
      <root>
        <mxCell id="0" />
        <mxCell id="1" parent="0" />
      </root>
    </mxGraphModel>
  </diagram>
</mxfile>
